<svg xmlns="http://www.w3.org/2000/svg" version="1.1" xmlns:xlink="http://www.w3.org/1999/xlink" xmlns:svgjs="http://svgjs.dev/svgjs" width="1500" height="1500" viewBox="0 0 1500 1500"><rect width="1500" height="1500" fill="#000000"></rect><g transform="matrix(0.6666666666666666,0,0,0.6666666666666666,249.39393939393938,624.666838769)"><svg viewBox="0 0 396 99" data-background-color="#ffffff" preserveAspectRatio="xMidYMid meet" height="375" width="1500" xmlns="http://www.w3.org/2000/svg" xmlns:xlink="http://www.w3.org/1999/xlink"><g id="tight-bounds" transform="matrix(1,0,0,1,0.2400000000000091,0.13193184747598252)"><svg viewBox="0 0 395.52 98.736136305048" height="98.736136305048" width="395.52"><g><svg viewBox="0 0 593.6244857735135 148.19020060009015" height="98.736136305048" width="395.52"><g transform="matrix(1,0,0,1,0,21.23682036749871)"><svg viewBox="0 0 395.52 105.71655986509273" height="105.71655986509273" width="395.52"><g id="textblocktransform"><svg viewBox="0 0 395.52 105.71655986509273" height="105.71655986509273" width="395.52" id="textblock"><g><svg viewBox="0 0 395.52 105.71655986509273" height="105.71655986509273" width="395.52"><g transform="matrix(1,0,0,1,0,0)"><svg width="395.52" viewBox="0.45 -28.5 177.88000000000002 47.55" height="105.71655986509273" data-palette-color="url(#739effa1-9cdb-4d19-a130-4ec6347847e6)"><g class="wordmark-text-0" data-fill-palette-color="primary" id="text-0"></g></svg></g></svg></g></svg></g></svg></g><g transform="matrix(1,0,0,1,445.43428517342323,0)"><svg viewBox="0 0 148.19020060009015 148.19020060009015" height="148.19020060009015" width="148.19020060009015"><g><svg></svg></g><g id="icon-0"><svg viewBox="0 0 148.19020060009015 148.19020060009015" height="148.19020060009015" width="148.19020060009015"><g></g><g transform="matrix(1,0,0,1,34.999299034149324,39.651430992562545)"><svg viewBox="0 0 78.1916025317915 68.88733861496506" height="68.88733861496506" width="78.1916025317915"><g><svg xmlns="http://www.w3.org/2000/svg" xmlns:xlink="http://www.w3.org/1999/xlink" version="1.1" x="0" y="0" viewBox="6.3 11.5 87.4 77" style="enable-background:new 0 0 100 100;" xml:space="preserve" height="68.88733861496506" width="78.1916025317915" class="icon-dxe-0" data-fill-palette-color="quaternary" id="dxe-0"><path d="M72.3 12.3L71.9 11.5H28.2L6.3 50 28.1 88.5H71.8L93.7 50zM33.3 25.3L9.9 47.7 28.5 14.9zM70.7 14.8L77.1 50.5 36.9 25.8zM35.5 27.3L76.5 52.5 35.5 75.8zM77 54.5L69.8 85.3 37.2 77.2zM33.5 75L9.9 50.5 33.5 27.8zM33.2 77.6L28.6 85.3 11.5 55.1zM35 78.6L66.4 86.5H30.2zM79.3 53.3L90.9 50.8 72.1 84zM90.7 48.9L79.3 51.4 73.4 18.3zM35 24.3L30 13.5H68.2z" fill="#000000" data-fill-palette-color="quaternary"></path></svg></g></svg></g></svg></g></svg></g></svg></g><defs></defs><mask id="fbcf300c-5030-4c22-b22a-20cb6431ffa5"><g id="SvgjsG1246"><svg viewBox="0 0 395.52 98.736136305048" height="98.736136305048" width="395.52"><g><svg viewBox="0 0 593.6244857735135 148.19020060009015" height="98.736136305048" width="395.52"><g transform="matrix(1,0,0,1,0,21.23682036749871)"><svg viewBox="0 0 395.52 105.71655986509273" height="105.71655986509273" width="395.52"><g id="SvgjsG1245"><svg viewBox="0 0 395.52 105.71655986509273" height="105.71655986509273" width="395.52" id="SvgjsSvg1244"><g><svg viewBox="0 0 395.52 105.71655986509273" height="105.71655986509273" width="395.52"><g transform="matrix(1,0,0,1,0,0)"><svg width="395.52" viewBox="0.45 -28.5 177.88000000000002 47.55" height="105.71655986509273" data-palette-color="url(#739effa1-9cdb-4d19-a130-4ec6347847e6)"><g class="wordmark-text-0" data-fill-palette-color="primary" id="SvgjsG1243"><path d="M13.55-2.9L13.55-2.9Q13.7-2.9 13.7-2.6 13.7-2.3 13-1.6L13-1.6 12.5-0.85Q11.15 1.2 10.53 1.55 9.9 1.9 9.53 1.9 9.15 1.9 8.38 1.73 7.6 1.55 7.58 1.35 7.55 1.15 7.55 0.5 7.55-0.15 8.5-2.63 9.45-5.1 10.7-7.5L10.7-7.5Q13-12 15.3-16.2L15.3-16.2Q15.75-17.05 15.75-17.53 15.75-18 15.6-18.25L15.6-18.25Q15.9-19.7 18.07-21.95 20.25-24.2 22.05-24.2L22.05-24.2Q22.85-24.2 24-23.58 25.15-22.95 25-21.95L25-21.95Q24.65-22.2 24.35-22.2L24.35-22.2Q22.25-22.2 19.1-18.1L19.1-18.1Q13.85-11.3 10.2-2.5L10.2-2.5Q9.8-1.45 9.8-1.07 9.8-0.7 9.8-0.6L9.8-0.6Q10-0.1 10.63-0.3 11.25-0.5 11.8-1.2L11.8-1.2Q13.1-2.9 13.55-2.9ZM32.6-24.45L32.6-24.45Q33-25.1 33.8-25.95L33.8-25.95Q31.6-26 27.2-26.35L27.2-26.35Q21.75-26.8 19.75-26.8 17.75-26.8 14.2-26.45L14.2-26.45Q9.45-25.8 6.03-23.83 2.6-21.85 1.95-18.85L1.95-18.85Q1.85-18.55 1.85-18.13 1.85-17.7 2.13-17.1 2.4-16.5 2.8-16.15 3.2-15.8 4.03-15.3 4.85-14.8 5.13-14.58 5.4-14.35 5.23-14.2 5.05-14.05 4.88-14.05 4.7-14.05 4.5-14.1L4.5-14.1Q2.8-14.6 1.63-15.98 0.45-17.35 0.45-18.28 0.45-19.2 0.7-19.85L0.7-19.85Q0.7-20.4 0.75-20.65L0.75-20.65Q1.5-24.2 5.3-26.15L5.3-26.15Q9.85-28.5 16.5-28.5L16.5-28.5Q20.55-28.5 27.13-27.6 33.7-26.7 34.45-26.7L34.45-26.7Q35.8-28.2 36.5-28.25L36.5-28.25Q36.75-28.3 37.2-28.3 37.65-28.3 38-27.98 38.35-27.65 38.35-27.3 38.35-26.95 38.05-26.6 37.75-26.25 36.83-25.58 35.9-24.9 35.35-24.35L35.35-24.35Q32.75-21.75 32.75-19.8L32.75-19.8Q32.75-18.95 33.1-18.43 33.45-17.9 33.05-17.68 32.65-17.45 32.2-18L32.2-18Q31.7-18.4 31.7-20.55 31.7-22.7 32.6-24.45ZM29.15-5.5L29.15-5.5Q30.05-7.35 30.05-8.35 30.05-9.35 29.82-9.93 29.6-10.5 30.02-10.9 30.45-11.3 31.1-11.2L31.1-11.2Q32.1-10.95 32.1-8.95 32.1-6.95 29.75-3.7L29.75-3.7Q29.8-2.35 31.15-2.35 32.5-2.35 35.25-5.25L35.25-5.25Q36.55-6.75 36.87-7.2 37.2-7.65 37.45-7.53 37.7-7.4 37.7-7.3L37.7-7.3Q37.7-6.8 35.9-4.7L35.9-4.7Q33.05-1.2 30.85-1.2L30.85-1.2Q29.4-1.2 28.8-2.45L28.8-2.45Q27.8-1.4 26.85-0.5L26.85-0.5Q24.9 1.15 22.5 1.15L22.5 1.15Q21.15 1.15 20.25 0.5L20.25 0.5Q18.5-0.55 18.5-3.25L18.5-3.25Q18.5-6.2 20.5-9.25L20.5-9.25Q21.65-11.05 23.2-12.4L23.2-12.4Q25.65-14.55 27.85-14.55L27.85-14.55Q28.4-14.55 28.9-14.4L28.9-14.4Q30.4-13.9 30.4-12.5L30.4-12.5Q30.4-11.35 29.8-11.35L29.8-11.35Q29.55-11.45 29.55-12.1L29.55-12.1Q29.55-13 28.55-13L28.55-13Q26.8-13 24.05-9.8 21.3-6.6 20.75-3.35L20.75-3.35Q20.65-2.8 20.65-2.13 20.65-1.45 21.1-0.58 21.55 0.3 22.77 0.3 24 0.3 25.45-0.8 26.9-1.9 28.05-3.6L28.05-3.6 27.9-3.9Q27.7-4.7 28.1-5.2 28.5-5.7 29.15-5.5ZM42.89-13L42.89-13Q42.89-12.65 42.34-11.48 41.8-10.3 39.2-3.4L39.2-3.4Q40.99-5.6 43.74-8.5L43.74-8.5Q49.3-14.3 51.39-14.3L51.39-14.3Q51.84-14.3 52.27-14.05 52.7-13.8 52.7-12.93 52.7-12.05 52.14-10.98 51.59-9.9 50.89-8.35 50.2-6.8 49.95-6.4L49.95-6.4Q54.14-10.2 56.3-11.03 58.45-11.85 59.14-11.85 59.84-11.85 59.84-11.35L59.84-11.35Q59.84-11.05 59.09-9.9 58.34-8.75 57.45-6.5 56.55-4.25 56.45-3.35 56.34-2.45 56.34-1.75 56.34-1.05 56.75-0.6L56.75-0.6Q57.5 0.2 58.8-0.5 60.09-1.2 62.42-3.3 64.75-5.4 66.14-7.4L66.14-7.4Q66.34-7.65 66.62-7.53 66.9-7.4 66.9-7.28 66.9-7.15 66.8-7L66.8-7Q66.05-5.65 64.09-3.55L64.09-3.55Q60.89-0.1 58.75 0.7L58.75 0.7Q56.39 1.5 55.34 0.9 54.3 0.3 54.05-0.45 53.8-1.2 53.8-1.95L53.8-1.95Q53.8-4.3 54.72-6.65 55.64-9 56.2-9.85L56.2-9.85Q54.3-9.05 52.95-7.85L52.95-7.85Q50.89-6.05 49.64-4.7L49.64-4.7 48.64-3.6Q48.2-2.5 47.07-2.35 45.95-2.2 45.99-3.1L45.99-3.1Q46.09-4.05 47.84-7.35 49.59-10.65 49.59-11.03 49.59-11.4 49.2-11.4L49.2-11.4Q48.3-11.4 45.95-9.35L45.95-9.35Q44.39-7.9 41.37-3.88 38.34 0.15 37.95 0.4L37.95 0.4Q36.14 1.3 35.7 1.3 35.24 1.3 35.24 1.15 35.24 1 35.39 0.7 35.55 0.4 38.45-8L38.45-8Q37.34-6.3 36.45-5.4L36.45-5.4Q36.05-4.95 36.05-5.58 36.05-6.2 36.39-6.65L36.39-6.65Q38.64-9.6 39.7-11.65L39.7-11.65Q39.99-13.4 40.89-13.7L40.89-13.7Q41.45-13.9 42.17-13.7 42.89-13.5 42.89-13ZM68.04 0.55L68.04 0.55Q67.24 0.55 66.32 0.08 65.39-0.4 64.74-1.28 64.09-2.15 64.09-3.15 64.09-4.15 64.54-5.05L64.54-5.05Q65.54-7.15 67.77-9.13 69.99-11.1 72.39-12.5 74.79-13.9 76.19-14.25 77.59-14.6 78.92-14.6 80.24-14.6 81.19-13.93 82.14-13.25 82.14-12.5L82.14-12.5Q82.14-12.25 82.09-12.2 82.04-12.15 81.84-12.25L81.84-12.25Q81.24-13.2 79.37-13.2 77.49-13.2 75.12-11.98 72.74-10.75 70.64-8.9L70.64-8.9Q68.89-7.25 67.57-5.18 66.24-3.1 66.24-2.15L66.24-2.15Q66.24-0.3 67.29-0.3 68.34-0.3 70.49-2L70.49-2Q74.04-5 75.34-6.4L75.34-6.4Q79.94-11.35 80.29-11.35L80.29-11.35Q80.89-11.35 81.74-11 82.59-10.65 82.29-10.15L82.29-10.15Q79.74-6.55 79.29-2.9L79.29-2.9Q79.24-2.45 79.24-1.75 79.24-1.05 79.64-0.6L79.64-0.6Q80.39 0.2 81.69-0.5 82.99-1.2 85.32-3.3 87.64-5.4 89.04-7.4L89.04-7.4Q89.24-7.65 89.49-7.53 89.74-7.4 89.74-7.3L89.74-7.3Q89.74-6.55 87.37-4.03 84.99-1.5 83.74-0.6L83.74-0.6Q81.39 1.15 79.39 1.15L79.39 1.15Q77.49 1.15 76.84-0.75L76.84-0.75Q76.69-1.35 76.69-2.1L76.69-2.1Q76.69-4.35 77.64-6.85L77.64-6.85Q77.44-6.75 75.79-4.85 74.14-2.95 71.97-1.2 69.79 0.55 68.04 0.55ZM87.04 19.05L87.04 19.05Q86.64 19.05 86.04 18.9L86.04 18.9Q83.49 18.25 83.49 16.23 83.49 14.2 86.12 11.15 88.74 8.1 97.19 2.5L97.19 2.5Q100.79-4.85 102.19-9.15L102.19-9.15Q99.39-5.75 98.19-4.45L98.19-4.45Q93.69 0.55 90.94 0.55L90.94 0.55Q90.14 0.55 89.22 0.08 88.29-0.4 87.64-1.28 86.99-2.15 86.99-3.15L86.99-3.15Q86.99-5.8 90.69-9.1L90.69-9.1Q92.89-11.1 95.29-12.5 97.69-13.9 99.09-14.25 100.49-14.6 101.79-14.6 103.09-14.6 104.09-13.9 105.09-13.2 105.09-12.5L105.09-12.5Q105.09-12.1 104.69-12.25L104.69-12.25Q104.14-13.2 102.27-13.2 100.39-13.2 98.02-11.98 95.64-10.75 93.74-9.08 91.84-7.4 90.52-5.28 89.19-3.15 89.19-2.15L89.19-2.15Q89.19-0.4 90.19-0.4L90.19-0.4Q91.59-0.4 94.49-2.7L94.49-2.7Q98.79-6.05 102.74-10.85L102.74-10.85Q103.39-11.8 105.44-10.8L105.44-10.8Q106.24-10.4 106.09-10.1L106.09-10.1Q105.44-8.65 103.72-5.08 101.99-1.5 101.14 0.3L101.14 0.3Q102.29-0.3 105.07-2.73 107.84-5.15 109.94-7.6L109.94-7.6Q111.04-8.9 111.04-8L111.04-8Q111.04-6.75 105.04-1.4L105.04-1.4Q101.59 1.7 100.14 2.5L100.14 2.5Q95.89 11.25 94.44 13.5L94.44 13.5Q90.69 19.05 87.04 19.05ZM96.24 4.4L96.24 4.4Q90.24 8.9 87.64 11.53 85.04 14.15 85.04 16.45L85.04 16.45Q85.04 17.15 85.49 17.45 85.94 17.75 86.44 17.75 86.94 17.75 87.89 17 88.84 16.25 89.52 15.53 90.19 14.8 90.69 14.18 91.19 13.55 91.82 12.58 92.44 11.6 92.79 11.05 93.14 10.5 93.77 9.33 94.39 8.15 94.62 7.73 94.84 7.3 95.47 6 96.09 4.7 96.24 4.4ZM115.79 1.25L115.79 1.25Q113.24 1.25 113.24-1.83 113.24-4.9 117.64-9.4L117.64-9.4Q117.99-9.75 118.14-9.95L118.14-9.95 118.49-10.45Q119.19-11.4 119.14-11.65L119.14-11.65 118.99-12.1Q118.79-12.7 117.34-12.98 115.89-13.25 114.99-13.25L114.99-13.25Q110.49-6.9 109.79-6 109.09-5.1 108.84-5.25 108.59-5.4 108.59-5.6 108.59-5.8 108.89-6.2L108.89-6.2Q111.59-9.5 113.54-13.25L113.54-13.25Q112.94-13.35 112.64-13.68 112.34-14 112.59-14.78 112.84-15.55 114.11-16.85 115.39-18.15 116.34-18.6 117.29-19.05 117.54-19.15 117.79-19.25 118.09-19.25L118.09-19.25Q118.69-19.25 117.69-17.45L117.69-17.45 115.74-14.35Q117.99-14.2 119.59-14.2L119.59-14.2 121.34-14.25Q122.19-14.25 122.59-14.03 122.99-13.8 122.79-13.25L122.79-13.25Q122.44-12.3 121.04-10.7L121.04-10.7Q118.04-7.2 116.54-3.25L116.54-3.25Q116.19-2.3 116.19-1.6L116.19-1.6Q116.19-0.15 117.24-0.15L117.24-0.15Q117.59-0.15 118.56-0.7 119.54-1.25 121.84-3.33 124.14-5.4 125.54-7.4L125.54-7.4Q125.74-7.65 126.01-7.53 126.29-7.4 126.29-7.28 126.29-7.15 126.19-7L126.19-7Q125.44-5.65 123.49-3.55 121.54-1.45 119.69-0.15L119.69-0.15Q117.89 1.25 115.79 1.25ZM127.44 0.55L127.44 0.55Q126.64 0.55 125.71 0.08 124.79-0.4 124.14-1.28 123.49-2.15 123.49-3.15 123.49-4.15 123.94-5.05L123.94-5.05Q124.94-7.15 127.16-9.13 129.39-11.1 131.79-12.5 134.19-13.9 135.59-14.25 136.99-14.6 138.31-14.6 139.64-14.6 140.59-13.93 141.54-13.25 141.54-12.5L141.54-12.5Q141.54-12.25 141.49-12.2 141.44-12.15 141.24-12.25L141.24-12.25Q140.64-13.2 138.76-13.2 136.89-13.2 134.51-11.98 132.14-10.75 130.04-8.9L130.04-8.9Q128.29-7.25 126.96-5.18 125.64-3.1 125.64-2.15L125.64-2.15Q125.64-0.3 126.69-0.3 127.74-0.3 129.89-2L129.89-2Q133.44-5 134.74-6.4L134.74-6.4Q139.34-11.35 139.69-11.35L139.69-11.35Q140.29-11.35 141.14-11 141.99-10.65 141.69-10.15L141.69-10.15Q139.14-6.55 138.69-2.9L138.69-2.9Q138.64-2.45 138.64-1.75 138.64-1.05 139.04-0.6L139.04-0.6Q139.79 0.2 141.09-0.5 142.39-1.2 144.71-3.3 147.04-5.4 148.44-7.4L148.44-7.4Q148.64-7.65 148.89-7.53 149.14-7.4 149.14-7.3L149.14-7.3Q149.14-6.55 146.76-4.03 144.39-1.5 143.14-0.6L143.14-0.6Q140.79 1.15 138.79 1.15L138.79 1.15Q136.89 1.15 136.24-0.75L136.24-0.75Q136.09-1.35 136.09-2.1L136.09-2.1Q136.09-4.35 137.04-6.85L137.04-6.85Q136.84-6.75 135.19-4.85 133.54-2.95 131.36-1.2 129.19 0.55 127.44 0.55ZM154.33-13L154.33-13Q154.33-12.65 153.78-11.48 153.23-10.3 150.63-3.4L150.63-3.4Q152.43-5.6 155.18-8.5L155.18-8.5Q160.73-14.3 162.83-14.3L162.83-14.3Q163.28-14.3 163.71-14.05 164.13-13.8 164.13-12.93 164.13-12.05 163.58-10.98 163.03-9.9 162.33-8.35 161.63-6.8 161.38-6.4L161.38-6.4Q165.58-10.2 167.73-11.03 169.88-11.85 170.58-11.85 171.28-11.85 171.28-11.35L171.28-11.35Q171.28-11.05 170.53-9.9 169.78-8.75 168.88-6.5 167.98-4.25 167.88-3.35 167.78-2.45 167.78-1.75 167.78-1.05 168.18-0.6L168.18-0.6Q168.93 0.2 170.23-0.5 171.53-1.2 173.86-3.3 176.18-5.4 177.58-7.4L177.58-7.4Q177.78-7.65 178.06-7.53 178.33-7.4 178.33-7.28 178.33-7.15 178.23-7L178.23-7Q177.48-5.65 175.53-3.55L175.53-3.55Q172.33-0.1 170.18 0.7L170.18 0.7Q167.83 1.5 166.78 0.9 165.73 0.3 165.48-0.45 165.23-1.2 165.23-1.95L165.23-1.95Q165.23-4.3 166.16-6.65 167.08-9 167.63-9.85L167.63-9.85Q165.73-9.05 164.38-7.85L164.38-7.85Q162.33-6.05 161.08-4.7L161.08-4.7 160.08-3.6Q159.63-2.5 158.51-2.35 157.38-2.2 157.43-3.1L157.43-3.1Q157.53-4.05 159.28-7.35 161.03-10.65 161.03-11.03 161.03-11.4 160.63-11.4L160.63-11.4Q159.73-11.4 157.38-9.35L157.38-9.35Q155.83-7.9 152.81-3.88 149.78 0.15 149.38 0.4L149.38 0.4Q147.58 1.3 147.13 1.3 146.68 1.3 146.68 1.15 146.68 1 146.83 0.7 146.98 0.4 149.88-8L149.88-8Q148.78-6.3 147.88-5.4L147.88-5.4Q147.48-4.95 147.48-5.58 147.48-6.2 147.83-6.65L147.83-6.65Q150.08-9.6 151.13-11.65L151.13-11.65Q151.43-13.4 152.33-13.7L152.33-13.7Q152.88-13.9 153.61-13.7 154.33-13.5 154.33-13Z" fill="white"></path></g></svg></g></svg></g></svg></g></svg></g><g transform="matrix(1,0,0,1,445.43428517342323,0)"><svg viewBox="0 0 148.19020060009015 148.19020060009015" height="148.19020060009015" width="148.19020060009015"><g><svg></svg></g><g id="SvgjsG1242"><svg viewBox="0 0 148.19020060009015 148.19020060009015" height="148.19020060009015" width="148.19020060009015"><g><path d="M0 74.095c0-40.922 33.174-74.095 74.095-74.095 40.922 0 74.095 33.174 74.095 74.095 0 40.922-33.174 74.095-74.095 74.095-40.922 0-74.095-33.174-74.095-74.095zM74.095 138.657c35.656 0 64.561-28.905 64.562-64.562 0-35.656-28.905-64.561-64.562-64.561-35.656 0-64.561 28.905-64.561 64.561 0 35.656 28.905 64.561 64.561 64.562z" fill="black" stroke="transparent"></path><ellipse rx="73.35414929704463" ry="73.35414929704463" cx="74.09510030004508" cy="74.09510030004508" fill="black" stroke="transparent" stroke-width="0" fill-opacity="1"></ellipse></g><g transform="matrix(1,0,0,1,34.999299034149324,39.651430992562545)"><svg viewBox="0 0 78.1916025317915 68.88733861496506" height="68.88733861496506" width="78.1916025317915"><g><svg xmlns="http://www.w3.org/2000/svg" xmlns:xlink="http://www.w3.org/1999/xlink" version="1.1" x="0" y="0" viewBox="6.3 11.5 87.4 77" style="enable-background:new 0 0 100 100;" xml:space="preserve" height="68.88733861496506" width="78.1916025317915" class="icon-dxe-0" data-fill-palette-color="quaternary" id="SvgjsSvg1241"><path d="M72.3 12.3L71.9 11.5H28.2L6.3 50 28.1 88.5H71.8L93.7 50zM33.3 25.3L9.9 47.7 28.5 14.9zM70.7 14.8L77.1 50.5 36.9 25.8zM35.5 27.3L76.5 52.5 35.5 75.8zM77 54.5L69.8 85.3 37.2 77.2zM33.5 75L9.9 50.5 33.5 27.8zM33.2 77.6L28.6 85.3 11.5 55.1zM35 78.6L66.4 86.5H30.2zM79.3 53.3L90.9 50.8 72.1 84zM90.7 48.9L79.3 51.4 73.4 18.3zM35 24.3L30 13.5H68.2z" fill="black"></path></svg></g></svg></g></svg></g></svg></g></svg></g><defs><mask></mask></defs></svg><rect width="395.52" height="98.736136305048" fill="black" stroke="none" visibility="hidden"></rect></g></mask><linearGradient x1="0" x2="1" y1="0.548" y2="0.55" id="739effa1-9cdb-4d19-a130-4ec6347847e6"><stop stop-color="#ff6cab" offset="0"></stop><stop stop-color="#7366ff" offset="1"></stop></linearGradient><rect width="395.52" height="98.736136305048" fill="#ffffff" mask="url(#fbcf300c-5030-4c22-b22a-20cb6431ffa5)" data-fill-palette-color="primary"></rect><mask id="039b155d-ed57-4261-b245-d16886487df6"><g id="SvgjsG1258"><svg viewBox="0 0 395.52 98.736136305048" height="98.736136305048" width="395.52"><g><svg viewBox="0 0 593.6244857735135 148.19020060009015" height="98.736136305048" width="395.52"><g transform="matrix(1,0,0,1,0,21.23682036749871)"><svg viewBox="0 0 395.52 105.71655986509273" height="105.71655986509273" width="395.52"><g id="SvgjsG1257"><svg viewBox="0 0 395.52 105.71655986509273" height="105.71655986509273" width="395.52" id="SvgjsSvg1256"><g><svg viewBox="0 0 395.52 105.71655986509273" height="105.71655986509273" width="395.52"><g transform="matrix(1,0,0,1,0,0)"><svg width="395.52" viewBox="0.45 -28.5 177.88000000000002 47.55" height="105.71655986509273" data-palette-color="url(#739effa1-9cdb-4d19-a130-4ec6347847e6)"><g class="wordmark-text-0" data-fill-palette-color="primary" id="SvgjsG1255"></g></svg></g></svg></g></svg></g></svg></g><g transform="matrix(1,0,0,1,445.43428517342323,0)"><svg viewBox="0 0 148.19020060009015 148.19020060009015" height="148.19020060009015" width="148.19020060009015"><g><svg></svg></g><g id="SvgjsG1254"><svg viewBox="0 0 148.19020060009015 148.19020060009015" height="148.19020060009015" width="148.19020060009015"><g><path d="M0 74.095c0-40.922 33.174-74.095 74.095-74.095 40.922 0 74.095 33.174 74.095 74.095 0 40.922-33.174 74.095-74.095 74.095-40.922 0-74.095-33.174-74.095-74.095zM74.095 138.657c35.656 0 64.561-28.905 64.562-64.562 0-35.656-28.905-64.561-64.562-64.561-35.656 0-64.561 28.905-64.561 64.561 0 35.656 28.905 64.561 64.561 64.562z" fill="white" stroke="transparent"></path><ellipse rx="73.35414929704463" ry="73.35414929704463" cx="74.09510030004508" cy="74.09510030004508" fill="white" stroke="transparent" stroke-width="0" fill-opacity="1"></ellipse></g><g transform="matrix(1,0,0,1,34.999299034149324,39.651430992562545)"><svg viewBox="0 0 78.1916025317915 68.88733861496506" height="68.88733861496506" width="78.1916025317915"><g><svg xmlns="http://www.w3.org/2000/svg" xmlns:xlink="http://www.w3.org/1999/xlink" version="1.1" x="0" y="0" viewBox="6.3 11.5 87.4 77" style="enable-background:new 0 0 100 100;" xml:space="preserve" height="68.88733861496506" width="78.1916025317915" class="icon-dxe-0" data-fill-palette-color="quaternary" id="SvgjsSvg1253"><path d="M72.3 12.3L71.9 11.5H28.2L6.3 50 28.1 88.5H71.8L93.7 50zM33.3 25.3L9.9 47.7 28.5 14.9zM70.7 14.8L77.1 50.5 36.9 25.8zM35.5 27.3L76.5 52.5 35.5 75.8zM77 54.5L69.8 85.3 37.2 77.2zM33.5 75L9.9 50.5 33.5 27.8zM33.2 77.6L28.6 85.3 11.5 55.1zM35 78.6L66.4 86.5H30.2zM79.3 53.3L90.9 50.8 72.1 84zM90.7 48.9L79.3 51.4 73.4 18.3zM35 24.3L30 13.5H68.2z" fill="black"></path></svg></g></svg></g></svg></g></svg></g></svg></g><defs><mask></mask></defs><mask><g id="SvgjsG1252"><svg viewBox="0 0 395.52 98.736136305048" height="98.736136305048" width="395.52"><g><svg viewBox="0 0 593.6244857735135 148.19020060009015" height="98.736136305048" width="395.52"><g transform="matrix(1,0,0,1,0,21.23682036749871)"><svg viewBox="0 0 395.52 105.71655986509273" height="105.71655986509273" width="395.52"><g id="SvgjsG1251"><svg viewBox="0 0 395.52 105.71655986509273" height="105.71655986509273" width="395.52" id="SvgjsSvg1250"><g><svg viewBox="0 0 395.52 105.71655986509273" height="105.71655986509273" width="395.52"><g transform="matrix(1,0,0,1,0,0)"><svg width="395.52" viewBox="0.45 -28.5 177.88000000000002 47.55" height="105.71655986509273" data-palette-color="url(#739effa1-9cdb-4d19-a130-4ec6347847e6)"><g class="wordmark-text-0" data-fill-palette-color="primary" id="SvgjsG1249"><path d="M13.55-2.9L13.55-2.9Q13.7-2.9 13.7-2.6 13.7-2.3 13-1.6L13-1.6 12.5-0.85Q11.15 1.2 10.53 1.55 9.9 1.9 9.53 1.9 9.15 1.9 8.38 1.73 7.6 1.55 7.58 1.35 7.55 1.15 7.55 0.5 7.55-0.15 8.5-2.63 9.45-5.1 10.7-7.5L10.7-7.5Q13-12 15.3-16.2L15.3-16.2Q15.75-17.05 15.75-17.53 15.75-18 15.6-18.25L15.6-18.25Q15.9-19.7 18.07-21.95 20.25-24.2 22.05-24.2L22.05-24.2Q22.85-24.2 24-23.58 25.15-22.95 25-21.95L25-21.95Q24.65-22.2 24.35-22.2L24.35-22.2Q22.25-22.2 19.1-18.1L19.1-18.1Q13.85-11.3 10.2-2.5L10.2-2.5Q9.8-1.45 9.8-1.07 9.8-0.7 9.8-0.6L9.8-0.6Q10-0.1 10.63-0.3 11.25-0.5 11.8-1.2L11.8-1.2Q13.1-2.9 13.55-2.9ZM32.6-24.45L32.6-24.45Q33-25.1 33.8-25.95L33.8-25.95Q31.6-26 27.2-26.35L27.2-26.35Q21.75-26.8 19.75-26.8 17.75-26.8 14.2-26.45L14.2-26.45Q9.45-25.8 6.03-23.83 2.6-21.85 1.95-18.85L1.95-18.85Q1.85-18.55 1.85-18.13 1.85-17.7 2.13-17.1 2.4-16.5 2.8-16.15 3.2-15.8 4.03-15.3 4.85-14.8 5.13-14.58 5.4-14.35 5.23-14.2 5.05-14.05 4.88-14.05 4.7-14.05 4.5-14.1L4.5-14.1Q2.8-14.6 1.63-15.98 0.45-17.35 0.45-18.28 0.45-19.2 0.7-19.85L0.7-19.85Q0.7-20.4 0.75-20.65L0.75-20.65Q1.5-24.2 5.3-26.15L5.3-26.15Q9.85-28.5 16.5-28.5L16.5-28.5Q20.55-28.5 27.13-27.6 33.7-26.7 34.45-26.7L34.45-26.7Q35.8-28.2 36.5-28.25L36.5-28.25Q36.75-28.3 37.2-28.3 37.65-28.3 38-27.98 38.35-27.65 38.35-27.3 38.35-26.95 38.05-26.6 37.75-26.25 36.83-25.58 35.9-24.9 35.35-24.35L35.35-24.35Q32.75-21.75 32.75-19.8L32.75-19.8Q32.75-18.95 33.1-18.43 33.45-17.9 33.05-17.68 32.65-17.45 32.2-18L32.2-18Q31.7-18.4 31.7-20.55 31.7-22.7 32.6-24.45ZM29.15-5.5L29.15-5.5Q30.05-7.35 30.05-8.35 30.05-9.35 29.82-9.93 29.6-10.5 30.02-10.9 30.45-11.3 31.1-11.2L31.1-11.2Q32.1-10.95 32.1-8.95 32.1-6.95 29.75-3.7L29.75-3.7Q29.8-2.35 31.15-2.35 32.5-2.35 35.25-5.25L35.25-5.25Q36.55-6.75 36.87-7.2 37.2-7.65 37.45-7.53 37.7-7.4 37.7-7.3L37.7-7.3Q37.7-6.8 35.9-4.7L35.9-4.7Q33.05-1.2 30.85-1.2L30.85-1.2Q29.4-1.2 28.8-2.45L28.8-2.45Q27.8-1.4 26.85-0.5L26.85-0.5Q24.9 1.15 22.5 1.15L22.5 1.15Q21.15 1.15 20.25 0.5L20.25 0.5Q18.5-0.55 18.5-3.25L18.5-3.25Q18.5-6.2 20.5-9.25L20.5-9.25Q21.65-11.05 23.2-12.4L23.2-12.4Q25.65-14.55 27.85-14.55L27.85-14.55Q28.4-14.55 28.9-14.4L28.9-14.4Q30.4-13.9 30.4-12.5L30.4-12.5Q30.4-11.35 29.8-11.35L29.8-11.35Q29.55-11.45 29.55-12.1L29.55-12.1Q29.55-13 28.55-13L28.55-13Q26.8-13 24.05-9.8 21.3-6.6 20.75-3.35L20.75-3.35Q20.65-2.8 20.65-2.13 20.65-1.45 21.1-0.58 21.55 0.3 22.77 0.3 24 0.3 25.45-0.8 26.9-1.9 28.05-3.6L28.05-3.6 27.9-3.9Q27.7-4.7 28.1-5.2 28.5-5.7 29.15-5.5ZM42.89-13L42.89-13Q42.89-12.65 42.34-11.48 41.8-10.3 39.2-3.4L39.2-3.4Q40.99-5.6 43.74-8.5L43.74-8.5Q49.3-14.3 51.39-14.3L51.39-14.3Q51.84-14.3 52.27-14.05 52.7-13.8 52.7-12.93 52.7-12.05 52.14-10.98 51.59-9.9 50.89-8.35 50.2-6.8 49.95-6.4L49.95-6.4Q54.14-10.2 56.3-11.03 58.45-11.85 59.14-11.85 59.84-11.85 59.84-11.35L59.84-11.35Q59.84-11.05 59.09-9.9 58.34-8.75 57.45-6.5 56.55-4.25 56.45-3.35 56.34-2.45 56.34-1.75 56.34-1.05 56.75-0.6L56.75-0.6Q57.5 0.2 58.8-0.5 60.09-1.2 62.42-3.3 64.75-5.4 66.14-7.4L66.14-7.4Q66.34-7.65 66.62-7.53 66.9-7.4 66.9-7.28 66.9-7.15 66.8-7L66.8-7Q66.05-5.65 64.09-3.55L64.09-3.55Q60.89-0.1 58.75 0.7L58.75 0.7Q56.39 1.5 55.34 0.9 54.3 0.3 54.05-0.45 53.8-1.2 53.8-1.95L53.8-1.95Q53.8-4.3 54.72-6.65 55.64-9 56.2-9.85L56.2-9.85Q54.3-9.05 52.95-7.85L52.95-7.85Q50.89-6.05 49.64-4.7L49.64-4.7 48.64-3.6Q48.2-2.5 47.07-2.35 45.95-2.2 45.99-3.1L45.99-3.1Q46.09-4.05 47.84-7.35 49.59-10.65 49.59-11.03 49.59-11.4 49.2-11.4L49.2-11.4Q48.3-11.4 45.95-9.35L45.95-9.35Q44.39-7.9 41.37-3.88 38.34 0.15 37.95 0.4L37.95 0.4Q36.14 1.3 35.7 1.3 35.24 1.3 35.24 1.15 35.24 1 35.39 0.7 35.55 0.4 38.45-8L38.45-8Q37.34-6.3 36.45-5.4L36.45-5.4Q36.05-4.95 36.05-5.58 36.05-6.2 36.39-6.65L36.39-6.65Q38.64-9.6 39.7-11.65L39.7-11.65Q39.99-13.4 40.89-13.7L40.89-13.7Q41.45-13.9 42.17-13.7 42.89-13.5 42.89-13ZM68.04 0.55L68.04 0.55Q67.24 0.55 66.32 0.08 65.39-0.4 64.74-1.28 64.09-2.15 64.09-3.15 64.09-4.15 64.54-5.05L64.54-5.05Q65.54-7.15 67.77-9.13 69.99-11.1 72.39-12.5 74.79-13.9 76.19-14.25 77.59-14.6 78.92-14.6 80.24-14.6 81.19-13.93 82.14-13.25 82.14-12.5L82.14-12.5Q82.14-12.25 82.09-12.2 82.04-12.15 81.84-12.25L81.84-12.25Q81.24-13.2 79.37-13.2 77.49-13.2 75.12-11.98 72.74-10.75 70.64-8.9L70.64-8.9Q68.89-7.25 67.57-5.18 66.24-3.1 66.24-2.15L66.24-2.15Q66.24-0.3 67.29-0.3 68.34-0.3 70.49-2L70.49-2Q74.04-5 75.34-6.4L75.34-6.4Q79.94-11.35 80.29-11.35L80.29-11.35Q80.89-11.35 81.74-11 82.59-10.65 82.29-10.15L82.29-10.15Q79.74-6.55 79.29-2.9L79.29-2.9Q79.24-2.45 79.24-1.75 79.24-1.05 79.64-0.6L79.64-0.6Q80.39 0.2 81.69-0.5 82.99-1.2 85.32-3.3 87.64-5.4 89.04-7.4L89.04-7.4Q89.24-7.65 89.49-7.53 89.74-7.4 89.74-7.3L89.74-7.3Q89.74-6.55 87.37-4.03 84.99-1.5 83.74-0.6L83.74-0.6Q81.39 1.15 79.39 1.15L79.39 1.15Q77.49 1.15 76.84-0.75L76.84-0.75Q76.69-1.35 76.69-2.1L76.69-2.1Q76.69-4.35 77.64-6.85L77.64-6.85Q77.44-6.75 75.79-4.85 74.14-2.95 71.97-1.2 69.79 0.55 68.04 0.55ZM87.04 19.05L87.04 19.05Q86.64 19.05 86.04 18.9L86.04 18.9Q83.49 18.25 83.49 16.23 83.49 14.2 86.12 11.15 88.74 8.1 97.19 2.5L97.19 2.5Q100.79-4.85 102.19-9.15L102.19-9.15Q99.39-5.75 98.19-4.45L98.19-4.45Q93.69 0.55 90.94 0.55L90.94 0.55Q90.14 0.55 89.22 0.08 88.29-0.4 87.64-1.28 86.99-2.15 86.99-3.15L86.99-3.15Q86.99-5.8 90.69-9.1L90.69-9.1Q92.89-11.1 95.29-12.5 97.69-13.9 99.09-14.25 100.49-14.6 101.79-14.6 103.09-14.6 104.09-13.9 105.09-13.2 105.09-12.5L105.09-12.5Q105.09-12.1 104.69-12.25L104.69-12.25Q104.14-13.2 102.27-13.2 100.39-13.2 98.02-11.98 95.64-10.75 93.74-9.08 91.84-7.4 90.52-5.28 89.19-3.15 89.19-2.15L89.19-2.15Q89.19-0.4 90.19-0.4L90.19-0.4Q91.59-0.4 94.49-2.7L94.49-2.7Q98.79-6.05 102.74-10.85L102.74-10.85Q103.39-11.8 105.44-10.8L105.44-10.8Q106.24-10.4 106.09-10.1L106.09-10.1Q105.44-8.65 103.72-5.08 101.99-1.5 101.14 0.3L101.14 0.3Q102.29-0.3 105.07-2.73 107.84-5.15 109.94-7.6L109.94-7.6Q111.04-8.9 111.04-8L111.04-8Q111.04-6.75 105.04-1.4L105.04-1.4Q101.59 1.7 100.14 2.5L100.14 2.5Q95.89 11.25 94.44 13.5L94.44 13.5Q90.69 19.05 87.04 19.05ZM96.24 4.4L96.24 4.4Q90.24 8.9 87.64 11.53 85.04 14.15 85.04 16.45L85.04 16.45Q85.04 17.15 85.49 17.45 85.94 17.75 86.44 17.75 86.94 17.75 87.89 17 88.84 16.25 89.52 15.53 90.19 14.8 90.69 14.18 91.19 13.55 91.82 12.58 92.44 11.6 92.79 11.05 93.14 10.5 93.77 9.33 94.39 8.15 94.62 7.73 94.84 7.3 95.47 6 96.09 4.7 96.24 4.4ZM115.79 1.25L115.79 1.25Q113.24 1.25 113.24-1.83 113.24-4.9 117.64-9.4L117.64-9.4Q117.99-9.75 118.14-9.95L118.14-9.95 118.49-10.45Q119.19-11.4 119.14-11.65L119.14-11.65 118.99-12.1Q118.79-12.7 117.34-12.98 115.89-13.25 114.99-13.25L114.99-13.25Q110.49-6.9 109.79-6 109.09-5.1 108.84-5.25 108.59-5.4 108.59-5.6 108.59-5.8 108.89-6.2L108.89-6.2Q111.59-9.5 113.54-13.25L113.54-13.25Q112.94-13.35 112.64-13.68 112.34-14 112.59-14.78 112.84-15.55 114.11-16.85 115.39-18.15 116.34-18.6 117.29-19.05 117.54-19.15 117.79-19.25 118.09-19.25L118.09-19.25Q118.69-19.25 117.69-17.45L117.69-17.45 115.74-14.35Q117.99-14.2 119.59-14.2L119.59-14.2 121.34-14.25Q122.19-14.25 122.59-14.03 122.99-13.8 122.79-13.25L122.79-13.25Q122.44-12.3 121.04-10.7L121.04-10.7Q118.04-7.2 116.54-3.25L116.54-3.25Q116.19-2.3 116.19-1.6L116.19-1.6Q116.19-0.15 117.24-0.15L117.24-0.15Q117.59-0.15 118.56-0.7 119.54-1.25 121.84-3.33 124.14-5.4 125.54-7.4L125.54-7.4Q125.74-7.65 126.01-7.53 126.29-7.4 126.29-7.28 126.29-7.15 126.19-7L126.19-7Q125.44-5.65 123.49-3.55 121.54-1.45 119.69-0.15L119.69-0.15Q117.89 1.25 115.79 1.25ZM127.44 0.55L127.44 0.55Q126.64 0.55 125.71 0.08 124.79-0.4 124.14-1.28 123.49-2.15 123.49-3.15 123.49-4.15 123.94-5.05L123.94-5.05Q124.94-7.15 127.16-9.13 129.39-11.1 131.79-12.5 134.19-13.9 135.59-14.25 136.99-14.6 138.31-14.6 139.64-14.6 140.59-13.93 141.54-13.25 141.54-12.5L141.54-12.5Q141.54-12.25 141.49-12.2 141.44-12.15 141.24-12.25L141.24-12.25Q140.64-13.2 138.76-13.2 136.89-13.2 134.51-11.98 132.14-10.75 130.04-8.9L130.04-8.9Q128.29-7.25 126.96-5.18 125.64-3.1 125.64-2.15L125.64-2.15Q125.64-0.3 126.69-0.3 127.74-0.3 129.89-2L129.89-2Q133.44-5 134.74-6.4L134.74-6.4Q139.34-11.35 139.69-11.35L139.69-11.35Q140.29-11.35 141.14-11 141.99-10.65 141.69-10.15L141.69-10.15Q139.14-6.55 138.69-2.9L138.69-2.9Q138.64-2.45 138.64-1.75 138.64-1.05 139.04-0.6L139.04-0.6Q139.79 0.2 141.09-0.5 142.39-1.2 144.71-3.3 147.04-5.4 148.44-7.4L148.44-7.4Q148.64-7.65 148.89-7.53 149.14-7.4 149.14-7.3L149.14-7.3Q149.14-6.55 146.76-4.03 144.39-1.5 143.14-0.6L143.14-0.6Q140.79 1.15 138.79 1.15L138.79 1.15Q136.89 1.15 136.24-0.75L136.24-0.75Q136.09-1.35 136.09-2.1L136.09-2.1Q136.09-4.35 137.04-6.85L137.04-6.85Q136.84-6.75 135.19-4.85 133.54-2.95 131.36-1.2 129.19 0.55 127.44 0.55ZM154.33-13L154.33-13Q154.33-12.65 153.78-11.48 153.23-10.3 150.63-3.4L150.63-3.4Q152.43-5.6 155.18-8.5L155.18-8.5Q160.73-14.3 162.83-14.3L162.83-14.3Q163.28-14.3 163.71-14.05 164.13-13.8 164.13-12.93 164.13-12.05 163.58-10.98 163.03-9.9 162.33-8.35 161.63-6.8 161.38-6.4L161.38-6.4Q165.58-10.2 167.73-11.03 169.88-11.85 170.58-11.85 171.28-11.85 171.28-11.35L171.28-11.35Q171.28-11.05 170.53-9.9 169.78-8.75 168.88-6.5 167.98-4.25 167.88-3.35 167.78-2.45 167.78-1.75 167.78-1.05 168.18-0.6L168.18-0.6Q168.93 0.2 170.23-0.5 171.53-1.2 173.86-3.3 176.18-5.4 177.58-7.4L177.58-7.4Q177.78-7.65 178.06-7.53 178.33-7.4 178.33-7.28 178.33-7.15 178.23-7L178.23-7Q177.48-5.65 175.53-3.55L175.53-3.55Q172.33-0.1 170.18 0.7L170.18 0.7Q167.83 1.5 166.78 0.9 165.73 0.3 165.48-0.45 165.23-1.2 165.23-1.95L165.23-1.95Q165.23-4.3 166.16-6.65 167.08-9 167.63-9.85L167.63-9.85Q165.73-9.05 164.38-7.85L164.38-7.85Q162.33-6.05 161.08-4.7L161.08-4.7 160.08-3.6Q159.63-2.5 158.51-2.35 157.38-2.2 157.43-3.1L157.43-3.1Q157.53-4.05 159.28-7.35 161.03-10.65 161.03-11.03 161.03-11.4 160.63-11.4L160.63-11.4Q159.73-11.4 157.38-9.35L157.38-9.35Q155.83-7.9 152.81-3.88 149.78 0.15 149.38 0.4L149.38 0.4Q147.58 1.3 147.13 1.3 146.68 1.3 146.68 1.15 146.68 1 146.83 0.7 146.98 0.4 149.88-8L149.88-8Q148.78-6.3 147.88-5.4L147.88-5.4Q147.48-4.95 147.48-5.58 147.48-6.2 147.83-6.65L147.83-6.65Q150.08-9.6 151.13-11.65L151.13-11.65Q151.43-13.4 152.33-13.7L152.33-13.7Q152.88-13.9 153.61-13.7 154.33-13.5 154.33-13Z" fill="black"></path></g></svg></g></svg></g></svg></g></svg></g><g transform="matrix(1,0,0,1,445.43428517342323,0)"><svg viewBox="0 0 148.19020060009015 148.19020060009015" height="148.19020060009015" width="148.19020060009015"><g><svg></svg></g><g id="SvgjsG1248"><svg viewBox="0 0 148.19020060009015 148.19020060009015" height="148.19020060009015" width="148.19020060009015"><g><path d="M0 74.095c0-40.922 33.174-74.095 74.095-74.095 40.922 0 74.095 33.174 74.095 74.095 0 40.922-33.174 74.095-74.095 74.095-40.922 0-74.095-33.174-74.095-74.095zM74.095 138.657c35.656 0 64.561-28.905 64.562-64.562 0-35.656-28.905-64.561-64.562-64.561-35.656 0-64.561 28.905-64.561 64.561 0 35.656 28.905 64.561 64.561 64.562z" fill="black" stroke="transparent"></path><ellipse rx="73.35414929704463" ry="73.35414929704463" cx="74.09510030004508" cy="74.09510030004508" fill="black" stroke="transparent" stroke-width="0" fill-opacity="1"></ellipse></g><g transform="matrix(1,0,0,1,34.999299034149324,39.651430992562545)"><svg viewBox="0 0 78.1916025317915 68.88733861496506" height="68.88733861496506" width="78.1916025317915"><g><svg xmlns="http://www.w3.org/2000/svg" xmlns:xlink="http://www.w3.org/1999/xlink" version="1.1" x="0" y="0" viewBox="6.3 11.5 87.4 77" style="enable-background:new 0 0 100 100;" xml:space="preserve" height="68.88733861496506" width="78.1916025317915" class="icon-dxe-0" data-fill-palette-color="quaternary" id="SvgjsSvg1247"><path d="M72.3 12.3L71.9 11.5H28.2L6.3 50 28.1 88.5H71.8L93.7 50zM33.3 25.3L9.9 47.7 28.5 14.9zM70.7 14.8L77.1 50.5 36.9 25.8zM35.5 27.3L76.5 52.5 35.5 75.8zM77 54.5L69.8 85.3 37.2 77.2zM33.5 75L9.9 50.5 33.5 27.8zM33.2 77.6L28.6 85.3 11.5 55.1zM35 78.6L66.4 86.5H30.2zM79.3 53.3L90.9 50.8 72.1 84zM90.7 48.9L79.3 51.4 73.4 18.3zM35 24.3L30 13.5H68.2z" fill="black"></path></svg></g></svg></g></svg></g></svg></g></svg></g><defs><mask></mask></defs></svg><rect width="395.52" height="98.736136305048" fill="black" stroke="none" visibility="hidden"></rect></g></mask></svg><rect width="395.52" height="98.736136305048" fill="black" stroke="none" visibility="hidden"></rect></g></mask><linearGradient x1="0" x2="1" y1="0.548" y2="0.55" id="c1385a27-f88f-4851-88a1-a1166701e359"><stop stop-color="#ff6cab" offset="0"></stop><stop stop-color="#7366ff" offset="1"></stop></linearGradient><rect width="395.52" height="98.736136305048" fill="#ffffff" mask="url(#039b155d-ed57-4261-b245-d16886487df6)" data-fill-palette-color="accent"></rect></svg><rect width="395.52" height="98.736136305048" fill="none" stroke="none" visibility="hidden"></rect></g></svg></g></svg>